/* XPM */
static const char * Meteorite_xpm[] = {
"32 18 62 1",
" 	c None",
".	c #000000",
"+	c #D3D3D3",
"@	c #DFDFDF",
"#	c #D1D1D1",
"$	c #BFBFBF",
"%	c #DCDCDC",
"&	c #DADADA",
"*	c #CDCDCD",
"=	c #7A7A7A",
"-	c #D9D9D9",
";	c #686868",
">	c #0D0D0D",
",	c #818181",
"'	c #D5D5D5",
")	c #B0B0B0",
"!	c #646464",
"~	c #B6B6B6",
"{	c #909090",
"]	c #C5C5C5",
"^	c #A7A7A7",
"/	c #A3A3A3",
"(	c #8B8B8B",
"_	c #9A9A9A",
":	c #AAAAAA",
"<	c #858585",
"[	c #3E3E3E",
"}	c #C0C0C0",
"|	c #939393",
"1	c #6B6B6B",
"2	c #B5B5B5",
"3	c #949494",
"4	c #898989",
"5	c #757575",
"6	c #B2B2B2",
"7	c #959595",
"8	c #7F7F7F",
"9	c #8E8E8E",
"0	c #7D7D7D",
"a	c #747474",
"b	c #0067AB",
"c	c #565656",
"d	c #929292",
"e	c #717171",
"f	c #0066AA",
"g	c #5D5D5D",
"h	c #767676",
"i	c #0065A9",
"j	c #999999",
"k	c #ADADAD",
"l	c #6C6C6C",
"m	c #727272",
"n	c #0065A8",
"o	c #0066AB",
"p	c #0065AB",
"q	c #626262",
"r	c #7C7C7C",
"s	c #697D8B",
"t	c #356382",
"u	c #0066A9",
"v	c #0065AA",
"w	c #0067AA",
"                                ",
"             .    +@#$          ",
"           ...   %&*=           ",
"          ...    @-;.>,         ",
"          ...    '$)!~{         ",
"          ...    ]^/(_          ",
"          ...   $:<=[.          ",
"          ..   }|(1 ..          ",
"          ..  2345  ...         ",
"          .. 6785   ...         ",
"          ..930a    ..          ",
"b         .cd0e    ...         b",
"bf        gd5h     ...        fb",
" bi      jklm      ...       ib ",
"  nbop   jqr              pobn  ",
"     pfbpslt         uvpbfp     ",
"         bwbbbfbbfbbbwb         ",
"                                "};
